<svg width="11" height="11" viewBox="0 0 11 11" fill="none" xmlns="http://www.w3.org/2000/svg">
<path id="Vector" d="M5.84991 0.449463C3.09293 0.449463 0.849915 2.69242 0.849915 5.44944C0.849915 8.20646 3.09293 10.4495 5.84991 10.4495C8.6069 10.4495 10.8499 8.20646 10.8499 5.44944C10.8499 2.69242 8.60695 0.449463 5.84991 0.449463ZM8.721 4.6049L5.57976 7.74613C5.44619 7.87969 5.26864 7.95321 5.07977 7.95321C4.8909 7.95321 4.71335 7.87969 4.57979 7.74613L2.97883 6.14517C2.84526 6.01161 2.7717 5.83406 2.7717 5.64519C2.7717 5.45627 2.84526 5.27872 2.97883 5.14516C3.11234 5.01159 3.28989 4.93803 3.47881 4.93803C3.66768 4.93803 3.84528 5.01159 3.9788 5.14521L5.07972 6.24608L7.72093 3.60488C7.8545 3.47132 8.03204 3.39781 8.22091 3.39781C8.40978 3.39781 8.58733 3.47132 8.7209 3.60488C8.99669 3.88067 8.99669 4.32921 8.721 4.6049Z" fill="#91A1AA"/>
</svg>
