<svg width="27" height="23" viewBox="0 0 27 23" fill="none" xmlns="http://www.w3.org/2000/svg">
<path d="M17.575 6.06079C12.8189 6.06079 8.95007 9.7682 8.95007 14.3252C8.95007 18.8821 12.8189 22.5896 17.575 22.5896C22.3311 22.5896 26.2 18.8822 26.2 14.3252C26.2 9.76824 22.3311 6.06079 17.575 6.06079ZM18.0776 13.6535C19.0064 14.2911 20.1625 15.0847 20.1625 16.3913C20.1625 17.4673 19.4393 18.3761 18.4375 18.7183V19.2838C18.4375 19.7404 18.0512 20.1103 17.575 20.1103C17.0988 20.1103 16.7125 19.7404 16.7125 19.2838V18.7183C15.7107 18.376 14.9875 17.4673 14.9875 16.3913C14.9875 15.9348 15.3738 15.5648 15.85 15.5648C16.3262 15.5648 16.7125 15.9348 16.7125 16.3913C16.7125 16.847 17.0994 17.2178 17.575 17.2178C18.0506 17.2178 18.4376 16.847 18.4376 16.3913C18.4376 15.934 17.7435 15.4575 17.0725 14.9969C16.1437 14.3594 14.9876 13.5658 14.9876 12.2591C14.9876 11.1831 15.7108 10.2743 16.7126 9.93212V9.36659C16.7126 8.91006 17.0989 8.54013 17.5751 8.54013C18.0512 8.54013 18.4376 8.91006 18.4376 9.36659V9.93212C19.4394 10.2744 20.1626 11.1831 20.1626 12.2591C20.1626 12.7157 19.7763 13.0856 19.3001 13.0856C18.8239 13.0856 18.4376 12.7157 18.4376 12.2591C18.4376 11.8035 18.0507 11.4327 17.575 11.4327C17.0995 11.4327 16.7125 11.8034 16.7125 12.2591C16.7125 12.7165 17.4065 13.1929 18.0776 13.6535Z" fill="#595C87"/>
<path d="M7.51248 6.06056C11.1645 6.06056 14.125 4.70386 14.125 3.03028C14.125 1.3567 11.1645 0 7.51248 0C3.86051 0 0.899994 1.3567 0.899994 3.03028C0.899994 4.70386 3.86051 6.06056 7.51248 6.06056Z" fill="#595C87"/>
<path d="M7.51248 7.71332C5.8285 7.71332 3.48524 7.43515 2.0466 6.81399C1.62099 6.63937 1.23804 6.44108 0.899994 6.2229V8.53974C0.899994 9.13429 1.60528 9.79314 2.74067 10.2593C3.76601 10.7021 5.76673 11.019 7.51248 11.019C7.62213 11.019 7.72585 11.0072 7.83436 11.0047C8.32732 9.68126 9.10134 8.48751 10.094 7.49036C9.28412 7.63629 8.41666 7.71332 7.51248 7.71332Z" fill="#595C87"/>
<path d="M7.82611 17.6232C7.72141 17.6253 7.61803 17.6305 7.51253 17.6305C5.82855 17.6305 3.48529 17.3523 2.04665 16.7312C1.61309 16.5534 1.19282 16.3291 0.899994 16.1401V18.457C0.899994 19.4553 3.67672 20.9363 7.51248 20.9363C8.27262 20.9363 9.01526 20.8723 9.7078 20.7521C8.89267 19.8373 8.25345 18.7789 7.82611 17.6232Z" fill="#595C87"/>
<path d="M7.38124 12.6694C5.70813 12.6559 3.44946 12.3784 2.0466 11.7727C1.61309 11.5949 1.19282 11.3707 0.899994 11.1816V13.4985C0.899994 14.093 1.60528 14.7519 2.74067 15.2181C3.74051 15.6499 5.66633 15.9597 7.3804 15.9749C7.28577 15.4371 7.22499 14.8882 7.22499 14.3249C7.22499 13.7597 7.28602 13.2091 7.38124 12.6694Z" fill="#595C87"/>
</svg>
