<svg width="148" height="36" viewBox="0 0 148 36" fill="none" xmlns="http://www.w3.org/2000/svg">
<path d="M31.3975 29.6686C31.1015 29.5807 30.7567 29.6513 30.4502 30.1664L25.7622 30.1802L25.1004 31.9941C25.0285 32.1907 24.8972 32.3606 24.7243 32.4808C24.5514 32.601 24.3452 32.6656 24.1339 32.6659L25.0395 30.1819H24.3533L23.6933 31.9924C23.6211 32.1891 23.4895 32.3591 23.3162 32.4793C23.143 32.5995 22.9366 32.664 22.725 32.6642L23.6306 30.1836H22.9445L22.2914 31.9941C22.22 32.191 22.0888 32.3612 21.9158 32.4814C21.7427 32.6017 21.5364 32.6661 21.3249 32.6659L22.2287 30.1888L17.1785 30.2026H13.7147C13.777 29.9695 13.9155 29.7634 14.1086 29.6163C14.3017 29.4692 14.5385 29.3895 14.7822 29.3895H17.3944L21.3998 15.3864H14.3382C12.4957 21.1985 10.6532 27.7599 8.81076 33.7236C8.49903 34.7296 9.25309 35.963 10.3171 35.9785C16.8406 36.0526 23.3642 35.9061 29.8894 35.9785C30.0704 35.9808 30.247 35.9235 30.3914 35.8156C30.5359 35.7077 30.6399 35.5553 30.687 35.3825L31.967 30.7228C32.0284 30.5083 32.0034 30.2787 31.8972 30.0821C31.791 29.8855 31.6119 29.7372 31.3975 29.6686Z" fill="url(#paint0_linear_156_25808)"/>
<path d="M25.8177 0.0155035V3.92406e-10H18.575C18.4142 -4.0578e-06 18.255 0.0314687 18.1065 0.0926051C17.958 0.153742 17.8232 0.243333 17.7099 0.356219C17.5966 0.469104 17.507 0.603052 17.4463 0.750345C17.3855 0.897638 17.3548 1.05537 17.356 1.21444H20.9556C20.8729 1.43348 20.7263 1.62328 20.5344 1.75976C20.3424 1.89624 20.1139 1.97325 19.8776 1.981L18.4949 2.02062C17.8749 4.0223 17.2538 6.02397 16.6315 8.02565H23.5295L25.4747 1.21444H25.6662C25.8199 1.21658 25.9689 1.16286 26.0851 1.06347C26.2013 0.964072 26.2766 0.82593 26.2967 0.675264C26.3139 0.526107 26.2744 0.375947 26.1859 0.253999C26.0973 0.132052 25.9661 0.0470397 25.8177 0.0155035Z" fill="#FF922E"/>
<path d="M31.6046 10.3528L31.5889 10.1719C31.2076 5.95498 27.5818 2.75609 23.2996 2.75609H10.9073C10.4046 2.75579 9.91404 2.90855 9.50216 3.19362C9.09028 3.4787 8.77709 3.88226 8.60511 4.3495C8.2812 5.12468 7.95613 5.89985 7.62989 6.67503H6.55019C6.18176 6.67545 5.81832 6.75935 5.48777 6.9203C5.15722 7.08125 4.86833 7.31497 4.64328 7.60352H10.7802C11.3183 7.60352 11.8512 7.61902 12.3823 7.62936C12.5661 7.63325 12.7469 7.67602 12.9125 7.75481C13.0781 7.83359 13.2248 7.94656 13.3426 8.0861C13.4604 8.22565 13.5466 8.38853 13.5955 8.5638C13.6443 8.73907 13.6546 8.92265 13.6258 9.10219L12.1786 13.0297H11.4942L12.8734 9.24H12.445L11.0641 13.0297H10.1933L11.576 9.24C9.29473 9.19521 7.44878 9.15215 5.16746 9.10908C4.89814 9.10427 4.63275 9.17356 4.4009 9.30921C4.16905 9.44487 3.97985 9.64157 3.8544 9.87736C3.74616 10.0817 3.66649 10.2996 3.61756 10.5251C3.59959 10.6074 3.60171 10.6929 3.62375 10.7743C3.64578 10.8557 3.68711 10.9307 3.7443 10.9932C3.80149 11.0556 3.87289 11.1037 3.95261 11.1335C4.03232 11.1632 4.11805 11.1737 4.20269 11.1642H4.21488C4.33833 11.1426 4.45488 11.0925 4.55504 11.018C4.65521 10.9435 4.73616 10.8466 4.79131 10.7352H8.76184C8.76323 10.811 8.74936 10.8864 8.72103 10.9569C8.69271 11.0273 8.65049 11.0915 8.59685 11.1457C8.54321 11.1999 8.47921 11.243 8.40858 11.2725C8.33794 11.302 8.26209 11.3173 8.18542 11.3175H6.1096C3.23618 19.7686 1.21957 25.8546 0.385408 27.734C-0.448753 29.6133 0.261764 30.3988 0.871276 30.6951C1.13478 30.82 1.42369 30.8837 1.71589 30.8812H6.95421L10.4371 20.8125H9.40444C9.13656 20.8125 8.87965 20.7072 8.69023 20.5199C8.50081 20.3325 8.3944 20.0784 8.3944 19.8134H14.244C16.7221 23.2586 19.2002 26.7521 21.6783 30.2025C24.0606 30.2025 26.4429 30.1663 28.8183 30.1663L20.5515 19.1691L23.2839 19.2432C25.2683 19.2511 27.1899 18.5558 28.7009 17.2833C30.2119 16.0108 31.2123 14.2453 31.521 12.3062C31.6213 11.6601 31.6493 11.005 31.6046 10.3528ZM10.5695 14.3837H9.76841L10.1602 13.3123H10.9596L10.5695 14.3837ZM11.6823 14.3837H11.0762L11.4646 13.3191H12.0741L11.6823 14.3837ZM15.261 14.3837C14.4808 14.3837 13.5288 14.3837 12.405 14.3837L12.7951 13.3243H15.6493L15.261 14.3837ZM12.9013 13.0297L14.2509 9.36403C15.4108 9.37953 16.372 9.38642 17.0826 9.38814L15.7538 13.0297H12.9013ZM16.6298 14.3906H16.2658H15.9819L16.3703 13.3157H17.0199L16.6298 14.3906ZM16.4748 13.0297L17.8035 9.38987H18.4601L17.1243 13.0297H16.4748ZM20.2346 13.7446C19.2455 14.239 18.319 14.3613 17.3525 14.3854L17.7426 13.3157C18.3563 13.3479 18.9713 13.3479 19.585 13.3157C20.4993 13.2692 20.9138 13.1762 21.3265 12.9591C21.4997 12.8667 21.6626 12.7564 21.8124 12.6301C21.3492 13.0817 20.8167 13.4579 20.2346 13.7446ZM22.2564 11.6775C22.0823 12.2959 21.4467 12.5905 21.1019 12.749C20.6386 12.9591 20.2311 12.9884 19.4422 13.0332C18.911 13.0653 18.3783 13.0653 17.8471 13.0332L19.1706 9.40365C19.3447 9.37264 20.7779 9.15904 21.6783 10.1065C21.8002 10.2305 22.4654 10.9213 22.2564 11.674V11.6775Z" fill="url(#paint1_linear_156_25808)"/>
<path fill-rule="evenodd" clip-rule="evenodd" d="M21.5321 2.7561H23.2996C24.764 2.75089 26.2041 3.12632 27.4757 3.84479L21.4032 9.85153C20.5116 9.19005 19.3326 9.36576 19.1706 9.39332L17.8471 13.0229C17.9516 13.0384 18.0631 13.0384 18.1797 13.0384L17.9011 13.3157H17.7426L17.6503 13.5707L11.3393 19.8134H8.39447C8.39447 20.0784 8.50088 20.3325 8.6903 20.5199C8.87972 20.7072 9.13663 20.8125 9.40452 20.8125H10.3292L0.545694 30.4901C0.0563425 30.0888 -0.311106 29.2998 0.385479 27.734C0.833035 26.7314 1.61843 24.5196 2.69118 21.3861L9.76848 14.3837H10.5696L10.9596 13.3157H10.8499L11.6963 12.4751L11.4943 13.0298H12.1787L12.776 11.4105L13.9114 10.2874L12.9014 13.0298H15.7539L17.0826 9.38815C16.4958 9.38643 15.7365 9.38126 14.8379 9.37092L21.5321 2.7561ZM11.0763 14.3768H11.6823L12.0742 13.3123H11.4647L11.0763 14.3768ZM12.4051 14.3768H15.2611L15.6494 13.3174H12.7951L12.4051 14.3768ZM16.2659 14.3872H16.6298L17.0199 13.3157H16.3704L15.982 14.3872H16.2659ZM16.4749 13.0263H17.1244L18.4601 9.38643H17.8036L16.4749 13.0263ZM13.2025 7.94292C13.3664 8.08501 13.4912 8.26588 13.5652 8.46863C13.6392 8.67137 13.66 8.88937 13.6257 9.10224L13.5508 9.30207L20.1806 2.75614H18.46L13.2025 7.94292ZM10.4215 12.4028L11.3984 9.72761L4.25843 16.7903C3.95426 17.6907 3.66401 18.548 3.3877 19.3622L10.4215 12.4028ZM22.0388 10.5664L28.2924 4.38048C29.0783 4.96108 29.7545 5.67426 30.2899 6.48724L15.3133 21.3017C14.958 20.8033 14.6016 20.306 14.244 19.8099H12.6907L18.2477 14.3268C18.9436 14.2536 19.6203 14.0563 20.2451 13.7446C20.8235 13.4569 21.3525 13.0808 21.8124 12.6301C21.6627 12.7564 21.4998 12.8667 21.3266 12.9591C20.9138 13.1761 20.4994 13.2692 19.5851 13.3157L19.2455 13.3312L19.5538 13.0245C20.273 12.9815 20.6613 12.9453 21.1019 12.7455C21.4467 12.587 22.0824 12.2924 22.2565 11.674C22.2969 11.4844 22.2984 11.2886 22.261 11.0984C22.2236 10.9082 22.1481 10.7273 22.0388 10.5664ZM9.78578 22.6868L1.51209 30.8709C1.57978 30.8778 1.64779 30.8812 1.71584 30.8812H5.63239L7.64029 28.8933L9.78578 22.6868Z" fill="url(#paint2_linear_156_25808)"/>
<path d="M38 27.7325V8.23257H43.1554C44.3211 8.20932 45.4837 8.35917 46.6037 8.67704C47.5073 8.93286 48.2909 9.49096 48.8186 10.2544C49.3354 11.0097 49.5932 12.0529 49.592 13.3841C49.5988 14.1014 49.5268 14.8173 49.3774 15.5196C49.2535 16.1033 49.0024 16.654 48.6414 17.1337C48.2514 17.6188 47.7394 17.996 47.1557 18.2282L49.9055 27.7375H45.757L43.474 18.9016H42.0497V27.7375L38 27.7325ZM42.0497 16.5372H43.2287C43.8829 16.5372 44.398 16.4325 44.7739 16.223C45.1513 16.0143 45.4361 15.6754 45.573 15.2723C45.7414 14.7633 45.8204 14.2299 45.8064 13.6949C45.8064 12.797 45.636 12.1114 45.2953 11.638C44.9545 11.1645 44.3299 10.9278 43.4212 10.9278H42.0463L42.0497 16.5372Z" fill="white"/>
<path d="M57.3525 27.9983C55.8464 27.9983 54.6759 27.7454 53.8411 27.2397C53.0089 26.7353 52.3869 25.957 52.0863 25.044C51.7456 24.0883 51.5752 22.9286 51.5752 21.5651V8.23267H55.5755V22.1232C55.5753 22.5988 55.6123 23.0736 55.6862 23.5435C55.7372 23.9586 55.9074 24.3509 56.1769 24.6748C56.4302 24.9644 56.8192 25.1092 57.344 25.1092C57.8687 25.1092 58.2662 24.9644 58.5365 24.6748C58.8043 24.351 58.9706 23.9581 59.0153 23.5435C59.0804 23.0728 59.1129 22.5983 59.1124 22.1232V8.23267H63.1144V21.5702C63.1144 22.9336 62.944 24.0933 62.6033 25.0491C62.3022 25.9605 61.6801 26.737 60.8485 27.2397C60.0228 27.7443 58.8574 27.9972 57.3525 27.9983Z" fill="white"/>
<path d="M70.6638 27.9983C69.436 27.9983 68.4138 27.7755 67.5971 27.3299C66.7709 26.8801 66.1192 26.1752 65.7435 25.3248C65.3266 24.4336 65.0853 23.2985 65.0194 21.9194L68.5052 21.3412C68.5219 22.0164 68.6081 22.6882 68.7625 23.3464C68.8552 23.7986 69.0767 24.2157 69.4014 24.5495C69.544 24.6813 69.7118 24.7843 69.8951 24.8525C70.0784 24.9208 70.2736 24.9529 70.4696 24.9471C70.9932 24.9471 71.3487 24.7867 71.5361 24.4659C71.7294 24.128 71.8271 23.7455 71.8189 23.3581C71.8447 22.6269 71.6342 21.9063 71.2175 21.2995C70.7579 20.6841 70.2267 20.1233 69.6348 19.6285L67.5716 17.8707C66.8563 17.2849 66.2469 16.585 65.769 15.8004C65.3022 15.0295 65.0688 14.0827 65.0688 12.9598C65.0688 11.3557 65.5476 10.1242 66.505 9.26532C67.4625 8.40646 68.775 7.98482 70.4423 8.00042C71.4407 8.00042 72.259 8.16083 72.8974 8.48165C73.5015 8.77248 74.0147 9.21749 74.383 9.76995C74.7341 10.3077 74.9834 10.9032 75.119 11.5278C75.2561 12.15 75.3421 12.7819 75.3763 13.4176L71.916 13.9189C71.8898 13.3919 71.8364 12.8666 71.7559 12.3449C71.7095 11.959 71.557 11.5928 71.3146 11.2855C71.1893 11.1516 71.0346 11.0473 70.8623 10.9805C70.69 10.9136 70.5044 10.886 70.3196 10.8995C70.1128 10.8866 69.9062 10.9277 69.721 11.0187C69.5357 11.1097 69.3783 11.2473 69.265 11.4175C69.0386 11.757 68.92 12.1548 68.9243 12.5604C68.898 13.1634 69.0661 13.7592 69.4048 14.2631C69.7872 14.7721 70.2279 15.2363 70.7183 15.6467L72.7304 17.3811C73.5608 18.0827 74.2843 18.8975 74.8788 19.8006C75.4751 20.7074 75.7738 21.8269 75.7749 23.1592C75.7872 24.0264 75.5668 24.8815 75.136 25.6389C74.7195 26.3678 74.1034 26.968 73.3574 27.3717C72.53 27.8057 71.6018 28.0216 70.6638 27.9983Z" fill="white"/>
<path d="M79.7545 27.7326V11.1902H76.6879V8.23267H86.8505V11.1936H83.8298V27.7359L79.7545 27.7326Z" fill="white"/>
<path d="M91.7673 27.7326V20.0045L87.8896 8.23267H91.694L93.8288 15.0936L95.8119 8.23267H99.4953L95.6654 20.0045V27.7326H91.7673Z" fill="white"/>
<path d="M101.056 27.7326V8.23267H105.106V25.044H109.771V27.7409L101.056 27.7326Z" fill="#FFC239"/>
<path d="M116.96 27.9984C115.504 27.9984 114.35 27.7416 113.498 27.2281C112.651 26.7183 112.007 25.941 111.67 25.0241C111.302 24.0705 111.118 22.927 111.118 21.5936V14.3233C111.118 12.9866 111.302 11.847 111.67 10.9046C112.005 9.99479 112.651 9.22705 113.498 8.73236C114.35 8.24445 115.504 8.00049 116.96 8.00049C118.416 8.00049 119.582 8.25336 120.458 8.7591C121.308 9.25385 121.958 10.0211 122.298 10.9313C122.666 11.8704 122.85 13.0061 122.852 14.3384V21.6087C122.852 22.9454 122.667 24.0889 122.298 25.0391C121.96 25.9586 121.31 26.7366 120.458 27.2431C119.598 27.7466 118.432 27.9984 116.96 27.9984ZM116.96 25.1327C117.483 25.1327 117.868 25.0174 118.114 24.7835C118.372 24.5274 118.543 24.1995 118.604 23.8444C118.688 23.4284 118.729 23.0052 118.727 22.5812V13.3609C118.73 12.9407 118.689 12.5213 118.604 12.1093C118.543 11.7559 118.371 11.4297 118.114 11.1753C117.868 10.9525 117.484 10.8411 116.96 10.8411C116.47 10.8411 116.108 10.9581 115.854 11.1903C115.598 11.443 115.427 11.7666 115.364 12.1177C115.279 12.5297 115.238 12.949 115.241 13.3692V22.5895C115.239 23.013 115.276 23.4358 115.352 23.8527C115.405 24.2078 115.573 24.5369 115.831 24.7918C116.076 25.0174 116.452 25.1327 116.96 25.1327Z" fill="#FFC239"/>
<path d="M130.61 27.9984C129.154 27.9984 128 27.7416 127.148 27.2281C126.302 26.7183 125.657 25.941 125.32 25.0241C124.957 24.0705 124.775 22.927 124.775 21.5936V14.3233C124.775 12.9866 124.959 11.847 125.327 10.9046C125.662 9.99479 126.308 9.22705 127.155 8.73236C128.001 8.24445 129.153 8.00049 130.61 8.00049C132.068 8.00049 133.234 8.25336 134.108 8.7591C134.958 9.25385 135.608 10.0211 135.948 10.9313C136.316 11.8704 136.5 13.0061 136.5 14.3384V21.6087C136.5 22.9454 136.316 24.0889 135.948 25.0391C135.61 25.9586 134.96 26.7366 134.108 27.2431C133.248 27.7466 132.082 27.9984 130.61 27.9984ZM130.61 25.1327C131.133 25.1327 131.518 25.0174 131.764 24.7835C132.022 24.5274 132.193 24.1995 132.254 23.8444C132.339 23.4284 132.38 23.0052 132.377 22.5812V13.3609C132.38 12.9407 132.339 12.5213 132.254 12.1093C132.192 11.7555 132.019 11.4293 131.76 11.1753C131.517 10.9525 131.134 10.8411 130.61 10.8411C130.117 10.8411 129.749 10.9575 129.505 11.1903C129.248 11.443 129.077 11.7666 129.014 12.1177C128.929 12.5297 128.888 12.949 128.891 13.3692V22.5895C128.889 23.013 128.926 23.4358 129.002 23.8527C129.055 24.2078 129.223 24.5369 129.481 24.7918C129.726 25.0174 130.103 25.1327 130.61 25.1327Z" fill="#FFC239"/>
<path d="M140.904 27.7326V11.1902H137.837V8.23267H148V11.1936H144.979V27.7359L140.904 27.7326Z" fill="#FFC239"/>
<defs>
<linearGradient id="paint0_linear_156_25808" x1="27.8049" y1="3.28159" x2="15.4675" y2="52.4813" gradientUnits="userSpaceOnUse">
<stop stop-color="#FF922E"/>
<stop offset="1" stop-color="#FFC239"/>
</linearGradient>
<linearGradient id="paint1_linear_156_25808" x1="22.6343" y1="6.04972" x2="5.65303" y2="43.8074" gradientUnits="userSpaceOnUse">
<stop stop-color="#F9F9F9"/>
<stop offset="1" stop-color="#B5B5B5"/>
</linearGradient>
<linearGradient id="paint2_linear_156_25808" x1="-1.875" y1="29.3807" x2="39.196" y2="-14.9998" gradientUnits="userSpaceOnUse">
<stop stop-color="#F9F9F9"/>
<stop offset="1" stop-color="#B5B5B5"/>
</linearGradient>
</defs>
</svg>
