<svg width="13" height="13" viewBox="0 0 13 13" fill="none" xmlns="http://www.w3.org/2000/svg">
<g id="lock 1" clip-path="url(#clip0_341_5831)">
<g id="Group">
<path id="Vector" d="M3.12109 5.4627C3.57449 5.36135 4.11937 5.25891 4.73158 5.18058V4.17809C4.73158 3.01013 5.68178 2.05992 6.84974 2.05992C8.0177 2.05992 8.96791 3.01013 8.96791 4.17809V5.18058C9.58012 5.25891 10.125 5.36135 10.5784 5.4627V4.17809C10.5784 2.12213 8.90573 0.449463 6.84974 0.449463C4.79376 0.449463 3.12109 2.12213 3.12109 4.17811V5.4627Z" fill="#9295BA"/>
<path id="Vector_2" d="M6.84977 5.74609C4.64004 5.74609 2.79926 6.24695 2.16858 6.4412V11.7543C2.80022 11.9484 4.64499 12.4496 6.84977 12.4496C9.05951 12.4496 10.9003 11.9487 11.5309 11.7545V6.44139C10.8993 6.24728 9.05459 5.74609 6.84977 5.74609ZM7.20134 9.45958V10.6134H6.49821V9.45958C6.03994 9.31094 5.70757 8.88013 5.70757 8.37295C5.70757 7.74313 6.21996 7.23074 6.84977 7.23074C7.47959 7.23074 7.99198 7.74313 7.99198 8.37295C7.992 8.88013 7.65963 9.31094 7.20134 9.45958Z" fill="#9295BA"/>
</g>
</g>
<defs>
<clipPath id="clip0_341_5831">
<rect width="12" height="12" fill="white" transform="translate(0.849731 0.449463)"/>
</clipPath>
</defs>
</svg>
