<svg width="18" height="14" viewBox="0 0 18 14" fill="none" xmlns="http://www.w3.org/2000/svg">
<g id="Templates/Menu">
<path id="Menu" fill-rule="evenodd" clip-rule="evenodd" d="M0.5 1.16667C0.5 0.522334 1.04365 0 1.71429 0H16.2857C16.9563 0 17.5 0.522334 17.5 1.16667C17.5 1.811 16.9563 2.33333 16.2857 2.33333H1.71429C1.04365 2.33333 0.5 1.811 0.5 1.16667ZM0.5 7C0.5 6.35567 1.04365 5.83333 1.71429 5.83333H16.2857C16.9563 5.83333 17.5 6.35567 17.5 7C17.5 7.64433 16.9563 8.16667 16.2857 8.16667H1.71429C1.04365 8.16667 0.5 7.64433 0.5 7ZM1.71429 11.6667C1.04365 11.6667 0.5 12.189 0.5 12.8333C0.5 13.4777 1.04365 14 1.71429 14H16.2857C16.9563 14 17.5 13.4777 17.5 12.8333C17.5 12.189 16.9563 11.6667 16.2857 11.6667H1.71429Z" fill="#545784"/>
</g>
</svg>
