<svg width="21" height="18" viewBox="0 0 21 18" fill="none" xmlns="http://www.w3.org/2000/svg">
<path d="M4.33746 8.56794C5.34006 8.56715 6.31138 8.22297 7.08594 7.59404C7.86049 6.96511 8.39037 6.09034 8.58529 5.11875C8.78022 4.14715 8.62814 3.13885 8.15495 2.26561C7.68177 1.39237 6.91676 0.708208 5.99025 0.329688C5.06374 -0.048832 4.03305 -0.098298 3.07376 0.189717C2.11448 0.477732 1.28594 1.08541 0.729305 1.90923C0.172671 2.73305 -0.0776287 3.72204 0.0210488 4.70772C0.119726 5.69341 0.561276 6.6148 1.27048 7.31494C1.67299 7.71302 2.15113 8.02864 2.67745 8.24366C3.20378 8.45869 3.76791 8.56889 4.33746 8.56794ZM3.12659 3.08876C3.40673 2.81202 3.77533 2.63981 4.16958 2.60146C4.56384 2.56311 4.95936 2.661 5.28875 2.87844C5.61814 3.09589 5.86102 3.41943 5.97601 3.79396C6.091 4.16848 6.07099 4.57081 5.91938 4.93238C5.76777 5.29396 5.49394 5.59242 5.14455 5.77691C4.79517 5.9614 4.39184 6.0205 4.00329 5.94414C3.61475 5.86779 3.26502 5.6607 3.0137 5.35816C2.76238 5.05562 2.62501 4.67636 2.62501 4.28499C2.62439 4.06273 2.66841 3.84257 2.7545 3.63723C2.8406 3.4319 2.96707 3.24548 3.12659 3.08876ZM16.6626 9.42988C15.6591 9.42986 14.6866 9.77359 13.9109 10.4025C13.1352 11.0314 12.6042 11.9066 12.4084 12.8789C12.2126 13.8512 12.3641 14.8605 12.8372 15.7349C13.3102 16.6092 14.0755 17.2944 15.0026 17.6738C15.9297 18.0532 16.9613 18.1033 17.9216 17.8155C18.8819 17.5277 19.7115 16.9199 20.269 16.0956C20.8265 15.2713 21.0775 14.2815 20.9791 13.2949C20.8808 12.3083 20.4392 11.3859 19.7296 10.6849C19.3278 10.2858 18.8498 9.96933 18.3233 9.7539C17.7969 9.53847 17.2324 9.42833 16.6626 9.42988ZM17.8734 14.9111C17.5519 15.2264 17.1169 15.4029 16.6639 15.4021C16.2109 15.4012 15.7766 15.2231 15.4563 14.9066C15.1359 14.5901 14.9556 14.1611 14.9547 13.7136C14.9539 13.266 15.1326 12.8363 15.4517 12.5187C15.6105 12.3606 15.7994 12.2351 16.0074 12.1493C16.2154 12.0635 16.4385 12.0191 16.6639 12.0187C16.8893 12.0183 17.1126 12.0618 17.3209 12.1469C17.5293 12.2319 17.7186 12.3567 17.878 12.5142C18.0374 12.6717 18.1637 12.8587 18.2498 13.0645C18.3358 13.2703 18.3799 13.4909 18.3795 13.7136C18.3791 13.9363 18.3341 14.1567 18.2473 14.3622C18.1604 14.5677 18.0334 14.7543 17.8734 14.9111L17.8734 14.9111ZM19.2256 0.379759C19.3475 0.500163 19.4442 0.643104 19.5101 0.80042C19.5761 0.957735 19.61 1.12635 19.61 1.29662C19.61 1.4669 19.5761 1.63551 19.5101 1.79283C19.4442 1.95014 19.3475 2.09308 19.2256 2.21349L3.63059 17.6201C3.38413 17.8617 3.05079 17.997 2.70356 17.9963C2.35634 17.9957 2.02353 17.8591 1.77801 17.6165C1.53249 17.374 1.39427 17.0452 1.3936 16.7022C1.39294 16.3591 1.52989 16.0298 1.77447 15.7864L17.3695 0.379759C17.6156 0.136603 17.9495 0 18.2976 0C18.6456 0 18.9795 0.136603 19.2256 0.379759Z" fill="#595C87"/>
</svg>
