<svg width="33" height="32" viewBox="0 0 33 32" fill="none" xmlns="http://www.w3.org/2000/svg">
<g clip-path="url(#clip0_175_10117)">
<path fill-rule="evenodd" clip-rule="evenodd" d="M7.37589 24.5682C5.36262 23.418 4.35371 21.6886 4.35371 19.3884V12.6376C4.35371 10.1174 5.17187 8.71624 7.37589 7.45704L13.282 4.0812C15.3515 2.89816 17.2562 2.89816 19.3256 4.0812L25.2317 7.45611C27.302 8.63915 28.253 10.2716 28.2539 12.6368V19.3867C28.2539 21.9059 27.4367 23.3081 25.2317 24.5673L19.3247 27.9431C17.3123 29.0932 15.2936 29.0932 13.2812 27.9431L7.37589 24.5682Z" fill="#2E87F0"/>
<mask id="mask0_175_10117" style="mask-type:alpha" maskUnits="userSpaceOnUse" x="4" y="3" width="25" height="26">
<path fill-rule="evenodd" clip-rule="evenodd" d="M7.37589 24.5682C5.36262 23.418 4.35371 21.6886 4.35371 19.3884V12.6376C4.35371 10.1174 5.17187 8.71624 7.37589 7.45704L13.282 4.0812C15.3515 2.89816 17.2562 2.89816 19.3256 4.0812L25.2317 7.45611C27.302 8.63915 28.253 10.2716 28.2539 12.6368V19.3867C28.2539 21.9059 27.4367 23.3081 25.2317 24.5673L19.3247 27.9431C17.3123 29.0932 15.2936 29.0932 13.2812 27.9431L7.37589 24.5682Z" fill="#2EAAF0"/>
</mask>
<g mask="url(#mask0_175_10117)">
<mask id="mask1_175_10117" style="mask-type:luminance" maskUnits="userSpaceOnUse" x="9" y="9" width="12" height="21">
<path d="M9.81668 12.6619V21.3895C9.82102 20.4218 10.2277 19.4982 10.9413 18.8369C11.663 18.1684 12.633 17.8287 13.6179 17.8996V12.6619H9.81668ZM13.618 21.2527C11.5723 21.4208 9.95705 23.0451 9.81668 25.0757L9.81659 29.9302H13.618V21.2527ZM13.6179 12.6619H16.5553C17.5097 12.6619 18.2626 12.8822 18.8139 13.3228C19.3652 13.7634 19.6408 14.4078 19.6408 15.2563V15.3052C19.6408 15.8109 19.5159 16.2603 19.2662 16.6538C20.0931 15.5116 20.3838 14.0572 20.0372 12.6719C19.6377 11.0753 18.4467 9.7897 16.8761 9.25991H9.81668V12.6619H13.6179Z" fill="white"/>
</mask>
<g mask="url(#mask1_175_10117)">
<path d="M20.3837 9.25991H9.81659V28.5967H20.3837V9.25991Z" fill="#96C3F7"/>
</g>
<path d="M18.8509 17.1531C18.3243 17.6508 17.5838 17.8996 16.6293 17.8996H13.6178C12.6328 17.8287 11.6629 18.1684 10.9413 18.8369C10.2277 19.4982 9.82102 20.4219 9.81659 21.3895V25.0756C9.95705 23.045 11.5723 21.4207 13.618 21.2526H16.5059C17.4768 21.2526 18.3861 21.1261 19.2335 20.8733C20.081 20.6203 20.8215 20.241 21.455 19.7351C22.0885 19.2293 22.5864 18.6011 22.9484 17.8505C23.3104 17.1 23.4914 16.2271 23.4914 15.2316V15.1828C23.4914 14.3016 23.3393 13.498 23.0348 12.7719C22.7303 12.0458 22.2942 11.4217 21.7265 10.8996C21.1587 10.3774 20.4677 9.97359 19.6531 9.68794C18.8385 9.40265 17.9128 9.25991 16.8761 9.25991C18.4467 9.7897 19.6376 11.0753 20.0371 12.6719C20.3837 14.0573 20.0931 15.5116 19.2661 16.6538C19.1533 16.8317 19.0148 16.9982 18.8509 17.1531Z" fill="white"/>
</g>
<path fill-rule="evenodd" clip-rule="evenodd" d="M4.93198 27.2153C4.9318 27.2152 4.93217 27.2156 4.93198 27.2153V27.2153ZM7.77502 27.9772H7.77314L12.9523 30.9757C15.3111 32.3414 17.6201 32.3414 19.9788 30.9757L27.6104 26.5569C28.9643 25.7736 29.8195 24.9877 30.3502 24.0657C30.8815 23.1429 31.1333 22.0043 31.1333 20.4332V11.598C31.1328 10.1516 30.8463 8.97969 30.2844 8.00363C29.723 7.02813 28.8561 6.19546 27.6103 5.47414L19.9799 1.05656C18.7342 0.335052 17.5842 0 16.4667 0C15.3491 0 14.1992 0.33509 12.9535 1.05659L5.323 5.47536C3.96959 6.25877 3.11445 7.04443 2.58358 7.9662C2.05219 8.88891 1.8 10.0275 1.8 11.5992V20.4354C1.8 23.1798 2.96163 25.1914 5.323 26.5581L7.77502 27.9772ZM19.5652 30.2122L27.1965 25.7936C28.2952 25.1577 29.1079 24.5067 29.6198 23.6166C30.1309 22.7279 30.2853 21.7001 30.2853 20.4332V11.5969C30.2853 10.3922 30.0762 9.35492 29.5553 8.44981C29.0339 7.54386 28.2407 6.84117 27.1966 6.23652L19.5663 1.81896C18.5228 1.21464 17.5168 0.875372 16.4678 0.875549C15.4189 0.875716 14.4132 1.21531 13.3704 1.81896L5.74014 6.23652C4.64351 6.87161 3.83064 7.5217 3.31793 8.41117C2.80589 9.29952 2.65036 10.3277 2.65036 11.5969V20.4332C2.65036 21.6102 2.88324 22.6533 3.40793 23.5645C3.82394 24.2869 4.40381 24.8925 5.13405 25.4065L5.11905 25.4365L13.3694 30.2122C14.3889 30.8024 15.4115 31.1238 16.4672 31.1238C17.5229 31.1238 18.5457 30.8023 19.5652 30.2122Z" fill="#2E87F0"/>
</g>
<defs>
<clipPath id="clip0_175_10117">
<rect width="32" height="32" fill="white" transform="translate(0.5)"/>
</clipPath>
</defs>
</svg>
