<svg width="21" height="21" viewBox="0 0 21 21" fill="none" xmlns="http://www.w3.org/2000/svg">
<path d="M8.63137 3.17358C8.63137 2.04816 9.54697 1.13256 10.6724 1.13256H11.3787L11.1657 0.540257C11.0458 0.207163 10.7319 0 10.3974 0C10.3047 0 10.2104 0.0159199 10.1182 0.0494742L2.98065 2.64732C2.55632 2.80178 2.33793 3.27134 2.4933 3.69534L2.87044 4.72475H8.63137V3.17358Z" fill="#595C87"/>
<path d="M10.6724 2.35742C10.2215 2.35742 9.85602 2.72293 9.85602 3.17383V4.725H16.9996V3.17383C16.9996 2.72293 16.6341 2.35742 16.1832 2.35742H10.6724Z" fill="#595C87"/>
<path d="M19.1631 16.5016H16.3056C14.6175 16.5016 13.2441 15.1282 13.2441 13.4401C13.2441 11.752 14.6175 10.3786 16.3056 10.3786H19.1631V7.5824C19.1631 6.68064 18.432 5.94958 17.5302 5.94958H1.73279C0.831027 5.94958 0.0999756 6.68064 0.0999756 7.5824V19.2674C0.0999756 20.1692 0.831027 20.9002 1.73279 20.9002H17.5302C18.432 20.9002 19.1631 20.1692 19.1631 19.2674V16.5016Z" fill="#595C87"/>
<path d="M20.3877 11.6031H16.3057C15.2928 11.6031 14.4688 12.4272 14.4688 13.4401C14.4688 14.4529 15.2928 15.277 16.3057 15.277H20.3877C20.7253 15.277 21 15.0023 21 14.6647V12.2155C21 11.8778 20.7253 11.6031 20.3877 11.6031ZM16.3057 14.0524C15.9675 14.0524 15.6934 13.7782 15.6934 13.4401C15.6934 13.1019 15.9675 12.8278 16.3057 12.8278C16.6438 12.8278 16.918 13.1019 16.918 13.4401C16.918 13.7782 16.6438 14.0524 16.3057 14.0524Z" fill="#595C87"/>
</svg>
