<svg width="15" height="14" viewBox="0 0 15 14" fill="none" xmlns="http://www.w3.org/2000/svg">
<g id="Templates/Wallet">
<path id="Vector" fill-rule="evenodd" clip-rule="evenodd" d="M7.58176 0.758652C6.8279 0.758652 6.21458 1.37197 6.21458 2.12584V3.1649H2.35558L2.10295 2.47535C1.99888 2.19133 2.14517 1.87679 2.42941 1.77332L7.21055 0.0331406C7.27229 0.0106641 7.33545 0 7.39755 0C7.62166 0 7.83193 0.13877 7.91219 0.361894L8.05492 0.758652H7.58176ZM7.03516 2.12587C7.03516 1.82383 7.27999 1.57899 7.58203 1.57899H11.2734C11.5755 1.57899 11.8203 1.82383 11.8203 2.12587V3.16493H7.03516V2.12587ZM13.2695 11.0536H11.3555C10.2247 11.0536 9.30469 10.1336 9.30469 9.00282C9.30469 7.87202 10.2247 6.95204 11.3555 6.95204H13.2695V5.07899C13.2695 4.47494 12.7798 3.98524 12.1758 3.98524H1.59375C0.989699 3.98524 0.5 4.47494 0.5 5.07899V12.9063C0.5 13.5103 0.989699 14 1.59375 14H12.1758C12.7798 14 13.2695 13.5103 13.2695 12.9063V11.0536ZM11.3555 7.77235H14.0898C14.316 7.77235 14.5 7.95635 14.5 8.18251V9.82314C14.5 10.0493 14.316 10.2333 14.0898 10.2333H11.3555C10.677 10.2333 10.125 9.6813 10.125 9.00282C10.125 8.32434 10.677 7.77235 11.3555 7.77235ZM10.9453 9.00282C10.9453 9.22934 11.129 9.41298 11.3555 9.41298C11.582 9.41298 11.7656 9.22934 11.7656 9.00282C11.7656 8.77631 11.582 8.59267 11.3555 8.59267C11.129 8.59267 10.9453 8.77631 10.9453 9.00282Z" fill="white"/>
</g>
</svg>
